:SAMPLES-PER-SECOND 30
:FULLY-SPECIFIED
:DEGREES
466
root  -3.79304 41.0072 0.391458 4.75586 -86.144 -2.88062
RightUpLeg  3.71119 -1.16023 -0.717438
RightLeg  -6.27264 -22.9323 3.02519
RightFoot  1.47711 -0.248112 2.31466
RightToes  -3.13588e-008 1.75238e-005 3.56266e-009
Spine  0.532304 0.29001 -1.18567
Spine1  -5.11827 0.176932 1.14394
HEad  -11.6018 -4.26819 8.5923
LeftShoulder1  0.84208 -0.238569 -15.6986
LeftArm  -33.1883 -19.882 -6.80791
LeftForeArm  39.2456 -37.4206 -6.20108
LeftHand  -0.875956 -5.14398 9.93152
RightShoulder  0.402828 -1.14178 9.83353
RightArm  -8.02259 19.757 4.56291
RightForeArm  2.07471 52.2327 14.4373
RightHand  -1.47923 9.3257 -11.9883
LeftUpLeg  2.10736 1.36715 3.56111
LeftLeg  -4.11369 11.2549 -0.966986
LeftFoot  1.253 0.401332 -3.71478
LeftToes  4.76812e-008 1.47286e-008 1.3089e-009
467
root  -3.81165 41.0064 0.371074 6.15717 -86.5562 -4.20453
RightUpLeg  3.6563 -1.10471 -0.637769
RightLeg  -6.36803 -22.5902 3.06251
RightFoot  1.51677 -0.239783 2.19617
RightToes  -3.13588e-008 1.75238e-005 3.56266e-009
Spine  0.323442 0.481987 -1.17909
Spine1  -4.69072 0.400339 0.901565
HEad  -12.9906 -4.70382 9.13724
LeftShoulder1  0.717492 0.262733 -15.2878
LeftArm  -33.4204 -17.5398 -6.79023
LeftForeArm  37.7067 -42.9244 -7.93125
LeftHand  -0.774403 -4.52596 9.35514
RightShoulder  0.340363 -1.45814 9.38383
RightArm  -8.10764 18.0278 3.78348
RightForeArm  2.25 55.0398 16.07
RightHand  -1.41329 9.03487 -11.6961
LeftUpLeg  2.1688 1.4606 3.67783
LeftLeg  -4.2194 11.5571 -1.04108
LeftFoot  1.22776 0.409026 -3.82683
LeftToes  4.76812e-008 1.47286e-008 1.3089e-009
468
root  -3.82677 41.0052 0.354274 7.2597 -86.5844 -5.18552
RightUpLeg  3.60864 -1.0934 -0.583541
RightLeg  -6.51192 -22.5538 3.18939
RightFoot  1.53045 -0.238005 2.18006
RightToes  -3.13588e-008 1.75238e-005 3.56266e-009
Spine  -0.0269836 0.61764 -1.2284
Spine1  -4.54687 0.556275 0.788423
HEad  -12.8911 -4.4515 9.30637
LeftShoulder1  0.621741 0.592824 -14.4498
LeftArm  -30.6848 -15.9062 -7.55542
LeftForeArm  33.9965 -48.8857 -10.2667
LeftHand  -0.820734 -4.0958 10.2955
RightShoulder  0.280451 -1.77994 9.00553
RightArm  -7.29731 17.5226 3.67185
RightForeArm  2.94664 57.0809 17.3994
RightHand  -1.45271 9.20907 -11.8727
LeftUpLeg  2.01785 1.49981 3.75828
LeftLeg  -4.13509 11.5551 -1.01811
LeftFoot  1.19592 0.401396 -3.70304
LeftToes  4.76812e-008 1.47286e-008 1.3089e-009
469
root  -3.839 41.0034 0.335251 7.3035 -86.3948 -5.28595
RightUpLeg  3.73887 -1.06841 -0.522121
RightLeg  -6.59223 -22.7647 3.2346
RightFoot  1.55468 -0.2395 2.22809
RightToes  -3.13588e-008 1.75238e-005 3.56266e-009
Spine  -0.384115 0.787272 -1.70746
Spine1  -4.58246 0.677802 1.31657
HEad  -10.8678 -5.53329 9.03732
LeftShoulder1  0.641383 0.444033 -14.0122
LeftArm  -28.5023 -16.5787 -9.25819
LeftForeArm  32.9083 -51.2484 -11.3824
LeftHand  -0.87731 -4.57941 10.4902
RightShoulder  0.289626 -1.67224 8.4715
RightArm  -5.74418 17.2102 3.71792
RightForeArm  3.56812 58.4064 18.3344
RightHand  -1.47694 9.33482 -11.9654
LeftUpLeg  2.04772 1.54273 3.82602
LeftLeg  -4.087 11.3 -0.991663
LeftFoot  1.1753 0.408176 -3.80532
LeftToes  4.76812e-008 1.47286e-008 1.3089e-009
470
root  -3.84598 40.9993 0.314471 6.48929 -85.9455 -4.7381
RightUpLeg  4.00248 -1.0683 -0.45013
RightLeg  -6.43039 -23.1908 3.16398
RightFoot  1.42439 -0.233101 2.17104
RightToes  -3.13588e-008 1.75238e-005 3.56266e-009
Spine  -0.863414 0.657606 -2.18151
Spine1  -4.22485 0.496375 1.87158
HEad  -8.39353 -5.46852 8.38115
LeftShoulder1  0.785416 -0.203247 -14.2556
LeftArm  -27.8641 -17.4797 -10.4828
LeftForeArm  34.6606 -51.6933 -11.4616
LeftHand  -0.805589 -4.68382 9.5621
RightShoulder  0.326388 -1.44801 8.48964
RightArm  -4.69542 18.2225 4.36542
RightForeArm  3.40357 58.3449 18.3078
RightHand  -1.4485 9.22677 -11.8268
LeftUpLeg  2.1618 1.57216 3.87059
LeftLeg  -3.83974 10.806 -0.886315
LeftFoot  1.08564 0.406801 -3.78116
LeftToes  4.76812e-008 1.47286e-008 1.3089e-009
471
root  -3.82856 40.9954 0.301654 5.86676 -85.3501 -4.46112
RightUpLeg  4.38889 -1.13085 -0.387953
RightLeg  -6.39257 -23.7419 3.22074
RightFoot  1.30704 -0.226955 2.12389
RightToes  -3.13588e-008 1.75238e-005 3.56266e-009
Spine  -0.791493 0.24727 -2.4075
Spine1  -4.21601 0.06351 2.06551
HEad  -6.45126 -4.69019 7.64099
LeftShoulder1  0.882443 -0.511042 -15.1319
LeftArm  -26.8944 -17.5727 -10.9195
LeftForeArm  33.9789 -52.8598 -12.0724
LeftHand  -0.756946 -4.49786 9.1711
RightShoulder  0.427437 -0.922365 9.27544
RightArm  -4.40225 19.6039 5.00333
RightForeArm  2.56453 58.3323 18.3756
RightHand  -1.44589 9.06898 -11.9274
LeftUpLeg  2.24241 1.6471 3.94082
LeftLeg  -3.48898 10.1384 -0.773099
LeftFoot  0.9789 0.410968 -3.8427
LeftToes  4.76812e-008 1.47286e-008 1.3089e-009
472
root  -3.81565 40.9925 0.302047 5.16183 -85.1227 -4.02649
RightUpLeg  4.6263 -1.24165 -0.434653
RightLeg  -6.24645 -23.8627 3.22075
RightFoot  1.18943 -0.225108 2.13293
RightToes  -3.13588e-008 1.75238e-005 3.56266e-009
Spine  -0.927479 0.0621963 -2.78227
Spine1  -3.66364 -0.186922 2.5672
HEad  -5.48449 -4.7723 7.06572
LeftShoulder1  0.965648 -0.743841 -15.9587
LeftArm  -28.1782 -17.5352 -12.045
LeftForeArm  34.607 -54.5898 -12.9024
LeftHand  -0.680982 -4.83431 8.01891
RightShoulder  0.472465 -0.712747 9.67315
RightArm  -4.73828 20.606 5.2721
RightForeArm  2.52418 59.221 19.1003
RightHand  -1.41171 9.14302 -11.6025
LeftUpLeg  2.4886 1.67902 3.94151
LeftLeg  -3.49029 9.84515 -0.761957
LeftFoot  0.97145 0.414064 -3.8858
LeftToes  4.76812e-008 1.47286e-008 1.3089e-009
473
root  -3.80045 40.9918 0.311717 5.45847 -85.2641 -4.33707
RightUpLeg  4.63064 -1.21401 -0.425892
RightLeg  -6.31559 -23.7763 3.22043
RightFoot  1.24133 -0.222978 2.12073
RightToes  -3.13588e-008 1.75238e-005 3.56266e-009
Spine  -1.28924 0.171856 -2.55927
Spine1  -3.03164 -0.0638936 2.35841
HEad  -5.46921 -4.59046 6.726
LeftShoulder1  1.0243 -0.870598 -16.7011
LeftArm  -30.3424 -17.566 -12.9441
LeftForeArm  34.9231 -57.6811 -14.7229
LeftHand  -0.654226 -4.49379 7.96697
RightShoulder  0.510471 -0.547384 10.053
RightArm  -6.38758 20.7619 4.51204
RightForeArm  5.09416 61.4485 20.881
RightHand  -1.38957 9.4024 -11.2355
LeftUpLeg  2.52903 1.70641 3.95188
LeftLeg  -3.55005 9.95659 -0.802854
LeftFoot  0.989686 0.414037 -3.87739
LeftToes  4.76812e-008 1.47286e-008 1.3089e-009
